<svg viewBox="0 0 1050 1050" xmlns="http://www.w3.org/2000/svg" fill-rule="evenodd" clip-rule="evenodd" stroke-linejoin="round" stroke-miterlimit="1.414"><path fill="#ecf3fd" d="M519.8 14.22h480.22v697.59H519.8z"/><path fill="#1872ec" d="M32 866.6h143.78v170.94H32zm185.79-129.31h143.78v300.25H217.79zm185.78-148.71h143.78v448.97H403.57z"/><path fill="#de8e68" d="M270.68 750.08h16.7v12.24h-16.7zm183.21-158.3h16.7v12.24h-16.7z"/><path d="M384.19 401.9c10 0 90.23 11.33 125.33 29.36-4.83 23.51-36.39 162-36.39 162h-19.65s-7.4-116.59-9-115.62c-10.63 5.47-52.82 19.27-97.91 19.94" fill="#5598f0" fill-rule="nonzero"/><path d="M384.19 401.9L288 751.69h-17.32V401.9" fill="#6ea4ea" fill-rule="nonzero"/><path d="M402 254.89c4.85 2.11 21.47 16 24.44 21 27.14-33.79 71.9-67.89 75.56-71.83 3.66-3.94 4.8-25.89 4.8-30.69 0-4.8 6.62-17.59 13-17.59v57.55s-74.9 105.05-87.23 105.05c-8 0-47.51-17.36-53-22.61" fill="#de8e68" fill-rule="nonzero"/><path d="M341 235.55c9.88-16 67 8.78 67 16.43s-21.18 42.88-30.67 42.38c-7.56-.36-46.56-42.2-36.33-58.81z" fill="#fcc486" fill-rule="nonzero"/><path d="M327.13 212.34c72.58 0 68.52 180.72 57.06 189.56-11.46 8.84-105.52 13.13-114.12 0-8.6-13.13-11.93-189.56 57.06-189.56z" fill="#fed385" fill-rule="nonzero"/><path d="M248.63 269.39c-12.89 4.05-46.05 66.57-46.05 76.11 0 20 67.52 108.09 76.11 108.09 3.58-6.21 9.31-19.09 9.31-19.09s-40.56-75.64-48-85.42c6.44-6 29.82-37.46 33.64-47.24 3.82-9.78 2.39-30.78 2.39-30.78l-27.4-1.67z" fill="#de8e68" fill-rule="nonzero"/><path d="M294.94 231.68c16.46 9-5.25 67.32-12.89 67.8-7.64.48-43.93-18.91-43.93-28.41 0-7.64 39.7-48.78 56.82-39.39z" fill="#fed892" fill-rule="nonzero"/><path d="M270.68 759.73v14.8h44.6v-5.37l-27.08-9.43h-17.52zm182.48-157.06v14.8h44.61v-5.36l-27.08-9.44h-17.53z" fill-rule="nonzero"/><path fill="#1872ec" d="M519.8 14.22h480.22v44.93H519.8z"/><path fill="#5094f1" d="M630.7 115.74H1034v114.91H630.7z"/><path fill="#f9f9f9" d="M654.25 137.98h360.56v10.41H654.25zm0 24.8h360.56v10.41H654.25zm0 24.81h360.56V198H654.25z"/><path fill="#5094f1" d="M630.7 276.83H1034v114.91H630.7z"/><circle cx="759.42" cy="409.28" r="34.22" fill="#f9f9f9" transform="translate(-75 -75)"/><path fill="#f9f9f9" d="M743.89 300.06h262.55v33.1H743.89zm0 44.32h262.55v12.16H743.89z"/><path fill="#fff" d="M566.74 441.58h378.79v186.36H566.74z"/><path d="M345.14 176.78h-28.75v40.79c0 10.13 28.75 10.3 28.75 0v-40.79z" fill="#d37c59" fill-rule="nonzero"/><path d="M366.15 158.08c-5.06-21.67-21.15-36.43-35.94-33-12.67 3-20.26 18.32-19 36.29a9.443 9.443 0 00-6.806 9.05c0 5.162 4.244 9.412 9.406 9.42a9.735 9.735 0 001.72-.17c6.86 16.52 20.41 26.81 33 23.87 14.79-3.43 22.68-23.8 17.62-45.46z" fill="#de8e68" fill-rule="nonzero"/><path d="M318.55 168.21c3.78 0 4.44-5.22 4.44-9.85 0-6.2 5.89-11.8 9.52-12.86 6.57-1.9 9.92-2.34 13.9-4.5 3.98-2.16 8.72-5.41 8.72-5.41a55.727 55.727 0 014.79 6.73c3.65-1 22.77-5.56 22.77-19.26 0-9-7.56-10.18-11-13-3.66-3-2.09-12.07-12-12.07-8.88 0-13.25 9.33-18.93 12.92-6.87 4.35-20.35.85-29.23 10-4.31 4.44-5.32 15.37-8 19.37-3.66 5.42-10 7-10 15.27 0 6.07 5.15 16.32 11.35 17.82 0-6 2.19-11.74 6.63-11.74 4.83 0 1.49 6.58 7.04 6.58z" fill="#1872ec" fill-rule="nonzero"/></svg>